<svg id="Layer_1" data-name="Layer 1" xmlns="http://www.w3.org/2000/svg" viewBox="0 0 512 512"><defs><style>.cls-1{fill:#9acc79;}.cls-2{opacity:0.2;}.cls-3{fill:#ffb85a;}.cls-4{fill:#e4e6ea;}.cls-5{opacity:0.3;}.cls-6{fill:#fff;}.cls-7{opacity:0.12;}.cls-8{fill:#2b374f;}</style></defs><title>scarecrow-filled</title><polygon class="cls-1" points="441.6 204.8 409.6 230.4 441.6 256 371.2 256 409.6 448 384 416 358.4 448 332.8 416 307.2 448 281.6 416 256 448 230.4 416 204.8 448 179.2 416 153.6 448 128 416 102.4 448 140.8 256 70.4 256 102.4 230.4 70.4 204.8 102.4 179.2 70.4 153.6 441.6 153.6 409.6 179.2 441.6 204.8"/><g class="cls-2"><path d="M355,153.6a102.22,102.22,0,0,1-198,0Z"/></g><path class="cls-3" d="M320,32V76.8H192V32a19.17,19.17,0,0,1,19.2-19.2h89.6A19.17,19.17,0,0,1,320,32Z"/><path class="cls-4" d="M320,76.8V128a63.94,63.94,0,0,1-48.06,62,63,63,0,0,1-31.87,0A63.94,63.94,0,0,1,192,128V76.8Z"/><g class="cls-5"><path class="cls-6" d="M240.06,190A63.94,63.94,0,0,1,192,128V32a19.17,19.17,0,0,1,19.2-19.2h19.2V140.67A127.65,127.65,0,0,0,240.06,190Z"/></g><g class="cls-7"><path d="M320,32v96a63.94,63.94,0,0,1-48.06,62,127.65,127.65,0,0,0,9.66-49.28V12.8h19.2A19.17,19.17,0,0,1,320,32Z"/></g><path class="cls-8" d="M244.91,284.49a12.8,12.8,0,0,0-18,1.8l-7.81,9.54-6.29-5a12.8,12.8,0,0,0-16,20l6.07,4.86-9.74,11.91-5.94-4.75a12.8,12.8,0,0,0-16,20l5.72,4.58-7.63,9.32a12.8,12.8,0,0,0,19.81,16.21l7.81-9.54,6.29,5a12.8,12.8,0,1,0,16-20l-6.07-4.86,9.74-11.91,5.94,4.75a12.8,12.8,0,0,0,16-20l-5.72-4.58,7.63-9.32A12.8,12.8,0,0,0,244.91,284.49Z"/><path class="cls-8" d="M449.59,246,430.09,230.4l19.51-15.61a12.79,12.79,0,0,0,0-20L430.09,179.2l19.51-15.61a12.8,12.8,0,0,0-8-22.79H331.71A76.92,76.92,0,0,0,332.8,128V89.6H352A12.8,12.8,0,0,0,352,64H332.8V32a32,32,0,0,0-32-32H211.2a32,32,0,0,0-32,32V64H160a12.8,12.8,0,0,0,0,25.6h19.2V128a76.92,76.92,0,0,0,1.09,12.8H70.4a12.8,12.8,0,0,0-8,22.79L81.91,179.2,62.4,194.81a12.8,12.8,0,0,0,0,20L81.91,230.4,62.4,246a12.8,12.8,0,0,0,8,22.79h54.79L89.85,445.49A12.8,12.8,0,0,0,112.39,456L128,436.49,143.61,456c4.86,6.07,15.13,6.07,20,0l15.61-19.51L194.81,456c4.86,6.07,15.13,6.07,20,0l15.61-19.51,12.8,16V499.2a12.8,12.8,0,1,0,25.6,0V452.49l12.8-16L297.21,456c4.86,6.07,15.13,6.07,20,0l15.61-19.51L348.41,456c4.86,6.07,15.13,6.07,20,0L384,436.49,399.61,456a12.8,12.8,0,0,0,22.54-10.51L386.81,268.8H441.6a12.8,12.8,0,0,0,8-22.79ZM204.8,32a6.41,6.41,0,0,1,6.4-6.4h89.6a6.41,6.41,0,0,1,6.4,6.4V64H204.8ZM307.2,89.6V128a51.2,51.2,0,0,1-102.4,0V89.6Zm94.41,150.79,3.51,2.81H371.2a12.8,12.8,0,0,0-12.55,15.31l29,145.23A13.08,13.08,0,0,0,374,408L358.4,427.51,342.79,408a12.8,12.8,0,0,0-20,0L307.2,427.51,291.59,408c-4.86-6.07-15.13-6.07-20,0L256,427.51,240.39,408c-4.86-6.07-15.13-6.07-20,0L204.8,427.51,189.19,408c-4.86-6.07-15.13-6.07-20,0L153.6,427.51,138,408a13.07,13.07,0,0,0-13.69-4.26l29-145.23A12.8,12.8,0,0,0,140.8,243.2H106.89l3.51-2.81a12.8,12.8,0,0,0,0-20L90.89,204.8l19.51-15.61a12.8,12.8,0,0,0,0-20l-3.51-2.81h82.64a76.72,76.72,0,0,0,132.93,0h82.65l-3.51,2.81a12.79,12.79,0,0,0,0,20l19.51,15.61-19.51,15.61a12.79,12.79,0,0,0,0,20Z"/></svg>